<?xml version="1.0" encoding="UTF-8"?>
<svg id="_레이어_1" data-name="레이어_1" xmlns="http://www.w3.org/2000/svg" version="1.1" viewBox="0 0 595.28 841.89">
  <!-- Generator: Adobe Illustrator 29.6.1, SVG Export Plug-In . SVG Version: 2.1.1 Build 9)  -->
  <defs>
    <style>
      .st0 {
        stroke-width: 3px;
      }

      .st0, .st1, .st2, .st3, .st4 {
        stroke-miterlimit: 10;
      }

      .st0, .st1, .st3, .st4 {
        fill: #fff;
        stroke: #040000;
      }

      .st1 {
        stroke-width: 2px;
      }

      .st2 {
        fill: none;
        stroke: #231815;
        stroke-linecap: round;
        stroke-width: 1.59px;
      }

      .st3 {
        stroke-width: 1.59px;
      }
    </style>
  </defs>
  <path class="st0" d="M367.58,142.14c9.08,13.58,19.52,26.81,25.04,32.33l-17.08,5.89-28.55-15.12c1.01-10.55,1.77-19.64,2.32-26.77.67-8.75,1-14.57,1-16.49,0-1.34-.28-2.58-.8-3.72l-.16.07c-5.5-3.8-17.66-6.45-49.61-6.45h-2.33c-31.96,0-44.12,2.65-49.61,6.45l-.16-.07c-.52,1.15-.8,2.39-.8,3.72,0,1.9.52,7.59,1.52,16.15.83,7.18,2.01,16.4,3.48,27.11l-29.8,15.29-.02-.03-17.49-6.03c5.52-5.52,15.96-18.75,25.04-32.33,5.34-7.98,10.21-16.07,13.34-22.79,3.19-6.84,6.66-12.77,54.5-12.77h2.33c47.83,0,51.31,5.93,54.5,12.77,3.13,6.72,8,14.81,13.34,22.79Z"/>
  <path class="st0" d="M489.83,240.82c10.01,39.67,38.2,127.93,38.2,433.41,0,7.13-68.8,4.12-68.8,0,0-139.82-22.91-282.05-26.36-302.65.98-6.32,1.63-9.8,1.63-9.8,15.14-171.89,28.65-184.8,35.42-178.17.02.01.03.03.05.05,8.15,8.69,13.83,33.31,19.85,57.16Z"/>
  <path class="st0" d="M349.31,138.46c-.55,7.13-1.32,16.22-2.32,26.77-5.95,62.83-20.06,177.05-43.19,234.23-24.05-56.62-43.29-171.23-51.96-234.23-1.48-10.71-2.65-19.93-3.48-27.11,5.76-3.6,18.14-6.08,49.05-6.08h2.33c31.87,0,44.05,2.64,49.57,6.42Z"/>
  <path class="st3" d="M349.51,118.25c.52,1.15.8,2.39.8,3.72,0,1.92-.33,7.73-1,16.49-5.52-3.78-17.7-6.42-49.57-6.42h-2.33c-30.91,0-43.29,2.48-49.05,6.08-1-8.56-1.52-14.25-1.52-16.15,0-1.34.28-2.58.8-3.72l.16.07c5.5-3.8,17.66-6.45,49.61-6.45h2.33c31.96,0,44.12,2.65,49.61,6.45l.16-.07Z"/>
  <path class="st0" d="M162.63,361.78s.66,3.48,1.63,9.8c-3.45,20.6-26.37,162.83-26.37,302.65,0,4.12-68.79,7.13-68.79,0,0-305.49,28.19-393.74,38.2-433.41,6.02-23.84,11.7-48.47,19.85-57.16.02-.02.03-.04.05-.05,6.76-6.63,20.28,6.27,35.42,178.17Z"/>
  <path class="st0" d="M295.5,421.13c.33-3.5.69-5.63,1.06-6.3,1.6-2.86,3.16-6.01,4.69-9.4-42.19-43.76-78.44-129.76-103.69-212.34l24.48-12.56-.02-.03-17.49-6.03c5.52-5.52,15.96-18.75,25.04-32.33-19.49,8.15-68.11,33.27-97.17,38.35-1.84.32-3.55,1.4-5.18,3.12,6.76-6.63,20.28,6.27,35.42,178.16,0,0,.66,3.48,1.63,9.8,2.95,18.96,8.83,63.48,8.83,116.46,0,1.18-.02,2.48-.07,3.88-.06,1.74-.16,3.64-.29,5.7-.56,9.11-1.78,21.16-3.34,34.83-7.24,63-22.05,160.63-16.46,166.21,10.59,10.59,70.56,27.06,103.98,27.06,8.19,0,15.12-5.91,20.9-15.31,3.64-5.9,6.82-13.18,9.58-21.25,5.38-15.72,9.16-34.42,11.53-51.66h0c-2.34-17.06-3.49-32.72-3.8-42.81-2.6-87.2-1.57-153.23.36-173.55Z"/>
  <path class="st0" d="M303.79,399.46c-.84,2.07-1.69,4.05-2.55,5.96-42.19-43.76-78.44-129.76-103.69-212.34l24.48-12.56,29.8-15.29c8.67,63,27.9,177.61,51.96,234.23Z"/>
  <path class="st0" d="M369.67,297.32c-2.47,7.6-4.73,14.34-6.71,20.04-.29.85-.58,1.68-.86,2.48-19.63,56.24-64.83,91.24-66.24,101.33l-.37-.04c.33-3.5.69-5.63,1.06-6.3,1.6-2.86,3.16-6.01,4.69-9.4.86-1.91,1.71-3.89,2.55-5.96,23.13-57.18,37.24-171.4,43.19-234.23l28.55,15.12,24.05,12.73c-9.6,38.95-21.07,77.02-29.92,104.23Z"/>
  <path class="st0" d="M464.75,180.49c-29.06-5.08-77.68-30.21-97.17-38.35,9.08,13.58,19.52,26.81,25.04,32.33l-17.08,5.89,24.05,12.73c-9.6,38.95-21.07,77.02-29.92,104.23h0c-2.47,7.6-4.73,14.34-6.71,20.04-.29.85-.58,1.68-.86,2.48-19.63,56.24-64.83,91.24-66.24,101.33l-.37-.04c-1.93,20.32-2.96,86.35-.36,173.55.31,10.09,1.45,25.75,3.8,42.8h0c2.39,17.29,6.01,35.97,11.2,51.67,2.67,8.08,5.76,15.35,9.32,21.25h.01c5.67,9.41,12.52,15.31,20.76,15.31,33.42,0,93.39-16.47,103.98-27.06,5.59-5.58-9.22-103.2-16.46-166.21-1.56-13.68-2.78-25.72-3.34-34.83-.13-2.06-.22-3.96-.29-5.7-.05-1.4-.07-2.71-.07-3.88,0-52.98,5.88-97.5,8.83-116.46.98-6.32,1.63-9.8,1.63-9.8,15.14-171.89,28.65-184.8,35.42-178.16-1.62-1.72-3.34-2.8-5.18-3.12Z"/>
  <path class="st4" d="M310.14,689.15c-3.83-.01-7.68-.01-11.56-.01s-7.47,0-11.17.01c5.38-15.72,9.16-34.42,11.53-51.66,2.39,17.27,6.01,35.96,11.2,51.66Z"/>
  <path class="st1" d="M310.14,689.15c2.67,8.08,5.76,15.35,9.32,21.25-6.88-.02-13.83-.03-20.88-.03s-13.93.01-20.75.03c3.64-5.9,6.82-13.18,9.58-21.25,3.7-.01,7.43-.01,11.17-.01s7.73,0,11.56.01Z"/>
  <path class="st2" d="M298.8,132.05s4.28,186.87-.52,191.67c-4.79,4.79,2.03-98.66,2.03-98.66"/>
</svg>